{
	"asset":{
		"generator":"Khronos glTF Blender I/O v3.5.30",
		"version":"2.0"
	},
	"scene":0,
	"scenes":[
		{
			"name":"Scene",
			"nodes":[
				0
			]
		}
	],
	"nodes":[
		{
			"mesh":0,
			"name":"trackiesStage1_Material384325.001_0",
			"scale":[
				0.011838535778224468,
				0.011838535778224468,
				0.011838535778224468
			],
			"translation":[
				0.034917596727609634,
				0.08441507071256638,
				0.029327725991606712
			]
		}
	],
	"materials":[
		{
			"doubleSided":true,
			"name":"Material384325.001",
			"pbrMetallicRoughness":{
				"baseColorFactor":[
					0.01738779991865158,
					0.01738779991865158,
					0.01738779991865158,
					1
				],
				"metallicFactor":0,
				"roughnessFactor":0.9249551892280579
			}
		}
	],
	"meshes":[
		{
			"name":"trackiesStage1_Material384325.001_0",
			"primitives":[
				{
					"attributes":{
						"POSITION":0,
						"TEXCOORD_0":1,
						"NORMAL":2
					},
					"indices":3,
					"material":0
				}
			]
		}
	],
	"accessors":[
		{
			"bufferView":0,
			"componentType":5126,
			"count":10907,
			"max":[
				17.140392303466797,
				92.27816009521484,
				14.5042085647583
			],
			"min":[
				-22.519216537475586,
				-4.478931903839111,
				-12.832797050476074
			],
			"type":"VEC3"
		},
		{
			"bufferView":1,
			"componentType":5126,
			"count":10907,
			"type":"VEC2"
		},
		{
			"bufferView":2,
			"componentType":5126,
			"count":10907,
			"type":"VEC3"
		},
		{
			"bufferView":3,
			"componentType":5123,
			"count":40653,
			"type":"SCALAR"
		}
	],
	"bufferViews":[
		{
			"buffer":0,
			"byteLength":130884,
			"byteOffset":0,
			"target":34962
		},
		{
			"buffer":0,
			"byteLength":87256,
			"byteOffset":130884,
			"target":34962
		},
		{
			"buffer":0,
			"byteLength":130884,
			"byteOffset":218140,
			"target":34962
		},
		{
			"buffer":0,
			"byteLength":81306,
			"byteOffset":349024,
			"target":34963
		}
	],
	"buffers":[
		{
			"byteLength":430332,
			"uri":"jogger.bin"
		}
	]
}
