{
	"asset":{
		"generator":"Khronos glTF Blender I/O v3.5.30",
		"version":"2.0"
	},
	"scene":0,
	"scenes":[
		{
			"name":"Scene",
			"nodes":[
				17
			]
		}
	],
	"nodes":[
		{
			"name":"Bone.004",
			"rotation":[
				0.005264526233077049,
				-0.9981637001037598,
				-0.06033376231789589,
				0.0011632069945335388
			],
			"scale":[
				0.9999999403953552,
				1.0000005960464478,
				1.0000001192092896
			],
			"translation":[
				-3.871134524047193e-09,
				2.2360899448394775,
				-7.460009499027365e-09
			]
		},
		{
			"name":"Bone.016",
			"rotation":[
				-0.03331225737929344,
				-0.0021588332019746304,
				0.06463000178337097,
				0.997350811958313
			],
			"scale":[
				1,
				1.0000001192092896,
				1.0000001192092896
			],
			"translation":[
				-4.386529326438904e-07,
				1.2016130685806274,
				1.862645149230957e-08
			]
		},
		{
			"children":[
				1
			],
			"name":"Bone.010",
			"rotation":[
				0.16037163138389587,
				0.5892271399497986,
				0.1745814085006714,
				0.7724077105522156
			],
			"scale":[
				1,
				0.9999999403953552,
				0.9999999403953552
			],
			"translation":[
				9.872019290924072e-08,
				0.5947831869125366,
				-4.470348358154297e-07
			]
		},
		{
			"children":[
				2
			],
			"name":"Bone.006",
			"rotation":[
				-0.6904137134552002,
				0.37173768877983093,
				0.5447859168052673,
				0.29723450541496277
			],
			"scale":[
				1.0000001192092896,
				1,
				1
			],
			"translation":[
				-3.058641482311941e-07,
				2.2360901832580566,
				-1.38270493721393e-07
			]
		},
		{
			"name":"Bone.017",
			"rotation":[
				-0.03331233188509941,
				0.0021584811620414257,
				-0.06462996453046799,
				0.997350811958313
			],
			"scale":[
				1,
				1,
				1.0000001192092896
			],
			"translation":[
				-1.4062970876693726e-07,
				1.2016143798828125,
				1.862645149230957e-08
			]
		},
		{
			"children":[
				4
			],
			"name":"Bone.011",
			"rotation":[
				0.19868633151054382,
				-0.5760303735733032,
				-0.21757772564888,
				0.7624780535697937
			],
			"scale":[
				1,
				0.9999999403953552,
				0.9999999403953552
			],
			"translation":[
				-1.2665987014770508e-07,
				0.6009263396263123,
				-5.736947059631348e-07
			]
		},
		{
			"children":[
				5
			],
			"name":"Bone.008",
			"rotation":[
				-0.6869045495986938,
				-0.381282776594162,
				-0.5384044647216797,
				0.30480530858039856
			],
			"scale":[
				0.9999999403953552,
				0.9999999403953552,
				1.0000001192092896
			],
			"translation":[
				-1.156525613055237e-07,
				2.2360901832580566,
				-1.938177618399095e-08
			]
		},
		{
			"children":[
				0,
				3,
				6
			],
			"name":"Bone.003",
			"rotation":[
				0.09119106084108353,
				-0.0003545292420312762,
				-0.005379884969443083,
				0.9958188533782959
			],
			"translation":[
				-0.023814622312784195,
				-1.05717134475708,
				-0.3989705741405487
			]
		},
		{
			"name":"Bone.026",
			"rotation":[
				-0.13342075049877167,
				0.011901184916496277,
				-0.06658904999494553,
				0.98874831199646
			],
			"scale":[
				0.9999999403953552,
				1,
				0.9999998211860657
			],
			"translation":[
				1.29343789012637e-07,
				1.2559964656829834,
				-8.242204785346985e-08
			]
		},
		{
			"children":[
				8
			],
			"name":"Bone.014",
			"rotation":[
				-0.04654274135828018,
				0.000445417535956949,
				0.016821755096316338,
				0.9987745881080627
			],
			"scale":[
				1,
				0.9999999403953552,
				1.0000001192092896
			],
			"translation":[
				-1.8042101146420464e-07,
				2.0767288208007812,
				9.452924132347107e-08
			]
		},
		{
			"children":[
				9
			],
			"name":"Bone.012",
			"rotation":[
				-0.09164989739656448,
				0.5892660021781921,
				-0.4336003065109253,
				0.6755417585372925
			],
			"scale":[
				1,
				0.9999999403953552,
				0.9999998211860657
			],
			"translation":[
				0,
				0.5248270034790039,
				-6.51925802230835e-08
			]
		},
		{
			"children":[
				10
			],
			"name":"Bone.007",
			"rotation":[
				-0.6299464702606201,
				0.38838261365890503,
				0.6381533145904541,
				0.21233637630939484
			],
			"scale":[
				1,
				1.0000001192092896,
				1
			],
			"translation":[
				-0.0009673761087469757,
				-1.092771053314209,
				-0.4714937210083008
			]
		},
		{
			"name":"Bone.027",
			"rotation":[
				-0.1334206610918045,
				-0.011901482939720154,
				0.06658897548913956,
				0.98874831199646
			],
			"scale":[
				0.9999998211860657,
				1.0000001192092896,
				0.9999999403953552
			],
			"translation":[
				-2.332280928385444e-07,
				1.2559950351715088,
				1.5133991837501526e-08
			]
		},
		{
			"children":[
				12
			],
			"name":"Bone.015",
			"rotation":[
				-0.04654275253415108,
				-0.00044524611439555883,
				-0.016821710392832756,
				0.9987745881080627
			],
			"scale":[
				1,
				0.9999998807907104,
				1
			],
			"translation":[
				-6.955269782338291e-08,
				2.0767297744750977,
				-3.026798367500305e-08
			]
		},
		{
			"children":[
				13
			],
			"name":"Bone.013",
			"rotation":[
				-0.09639564156532288,
				-0.5874122381210327,
				0.43608173727989197,
				0.6748981475830078
			],
			"scale":[
				1.0000001192092896,
				1.0000001192092896,
				1.0000001192092896
			],
			"translation":[
				2.0116567611694336e-07,
				0.5318614840507507,
				2.3283064365386963e-07
			]
		},
		{
			"children":[
				14
			],
			"name":"Bone.009",
			"rotation":[
				-0.628543496131897,
				-0.39106571674346924,
				-0.6363834142684937,
				0.21683384478092194
			],
			"scale":[
				0.9999999403953552,
				1,
				1
			],
			"translation":[
				-0.0009673798340372741,
				-1.092771053314209,
				-0.4714937210083008
			]
		},
		{
			"mesh":0,
			"name":"Cube.001",
			"skin":0
		},
		{
			"children":[
				16,
				7,
				11,
				15
			],
			"name":"Armature.001",
			"rotation":[
				-0.09749447554349899,
				0,
				0,
				0.9952360987663269
			],
			"scale":[
				0.10899999737739563,
				0.10927297919988632,
				0.10899998992681503
			]
		}
	],
	"materials":[
		{
			"doubleSided":true,
			"name":"Material.002",
			"pbrMetallicRoughness":{}
		}
	],
	"meshes":[
		{
			"name":"Cube.002",
			"primitives":[
				{
					"attributes":{
						"COLOR_0":0,
						"POSITION":1,
						"NORMAL":2,
						"JOINTS_0":3,
						"WEIGHTS_0":4
					},
					"indices":5,
					"material":0
				}
			]
		}
	],
	"skins":[
		{
			"inverseBindMatrices":6,
			"joints":[
				7,
				0,
				3,
				2,
				1,
				6,
				5,
				4,
				11,
				10,
				9,
				8,
				15,
				14,
				13,
				12
			],
			"name":"Armature.001"
		}
	],
	"accessors":[
		{
			"bufferView":0,
			"componentType":5123,
			"count":2468,
			"normalized":true,
			"type":"VEC4"
		},
		{
			"bufferView":1,
			"componentType":5126,
			"count":2468,
			"max":[
				0.3694159984588623,
				0.251363605260849,
				0.053598590195178986
			],
			"min":[
				-0.3701925277709961,
				-0.5724484324455261,
				-0.06626579165458679
			],
			"type":"VEC3"
		},
		{
			"bufferView":2,
			"componentType":5126,
			"count":2468,
			"type":"VEC3"
		},
		{
			"bufferView":3,
			"componentType":5121,
			"count":2468,
			"type":"VEC4"
		},
		{
			"bufferView":4,
			"componentType":5126,
			"count":2468,
			"type":"VEC4"
		},
		{
			"bufferView":5,
			"componentType":5123,
			"count":3624,
			"type":"SCALAR"
		},
		{
			"bufferView":6,
			"componentType":5126,
			"count":16,
			"type":"MAT4"
		}
	],
	"bufferViews":[
		{
			"buffer":0,
			"byteLength":19744,
			"byteOffset":0,
			"target":34962
		},
		{
			"buffer":0,
			"byteLength":29616,
			"byteOffset":19744,
			"target":34962
		},
		{
			"buffer":0,
			"byteLength":29616,
			"byteOffset":49360,
			"target":34962
		},
		{
			"buffer":0,
			"byteLength":9872,
			"byteOffset":78976,
			"target":34962
		},
		{
			"buffer":0,
			"byteLength":39488,
			"byteOffset":88848,
			"target":34962
		},
		{
			"buffer":0,
			"byteLength":7248,
			"byteOffset":128336,
			"target":34963
		},
		{
			"buffer":0,
			"byteLength":1024,
			"byteOffset":135584
		}
	],
	"buffers":[
		{
			"byteLength":136608,
			"uri":"human.bin"
		}
	]
}
