{
	"asset":{
		"generator":"Khronos glTF Blender I/O v3.5.30",
		"version":"2.0"
	},
	"scene":0,
	"scenes":[
		{
			"name":"Scene",
			"nodes":[
				17
			]
		}
	],
	"nodes":[
		{
			"name":"Bone.004",
			"rotation":[
				0.0052645266987383366,
				-0.9981637001037598,
				-0.06033378839492798,
				0.0011632069945335388
			],
			"scale":[
				0.9999999403953552,
				1.000000238418579,
				1
			],
			"translation":[
				-7.450580596923828e-09,
				2.2360904216766357,
				5.820766091346741e-11
			]
		},
		{
			"name":"Bone.016",
			"rotation":[
				-0.03331228345632553,
				-0.002158889314159751,
				0.06462998688220978,
				0.997350811958313
			],
			"scale":[
				0.9999999403953552,
				1,
				0.9999998807907104
			],
			"translation":[
				-2.2177118808031082e-07,
				1.2016127109527588,
				5.122274160385132e-09
			]
		},
		{
			"children":[
				1
			],
			"name":"Bone.010",
			"rotation":[
				0.16037166118621826,
				0.5892270803451538,
				0.17458148300647736,
				0.7724077105522156
			],
			"scale":[
				1.0000001192092896,
				0.9999998807907104,
				1
			],
			"translation":[
				7.12461769580841e-08,
				0.5947829484939575,
				-3.594905138015747e-07
			]
		},
		{
			"children":[
				2
			],
			"name":"Bone.006",
			"rotation":[
				-0.6904137134552002,
				0.37173768877983093,
				0.5447858572006226,
				0.29723459482192993
			],
			"scale":[
				1.000000238418579,
				1.0000001192092896,
				0.9999999403953552
			],
			"translation":[
				-2.5634653866291046e-07,
				2.2360901832580566,
				-1.2221971701364964e-07
			]
		},
		{
			"name":"Bone.017",
			"rotation":[
				-0.033312372863292694,
				0.0021584993228316307,
				-0.06463000178337097,
				0.997350811958313
			],
			"scale":[
				0.9999999403953552,
				0.9999999403953552,
				0.9999998211860657
			],
			"translation":[
				-1.7834827303886414e-07,
				1.2016146183013916,
				4.423782229423523e-09
			]
		},
		{
			"children":[
				4
			],
			"name":"Bone.011",
			"rotation":[
				0.19868624210357666,
				-0.5760303139686584,
				-0.2175777554512024,
				0.7624780535697937
			],
			"scale":[
				1.0000001192092896,
				0.9999999403953552,
				0.9999997615814209
			],
			"translation":[
				-1.0803341865539551e-07,
				0.6009262800216675,
				-5.140900611877441e-07
			]
		},
		{
			"children":[
				5
			],
			"name":"Bone.008",
			"rotation":[
				-0.6869045495986938,
				-0.3812828063964844,
				-0.5384044051170349,
				0.30480533838272095
			],
			"scale":[
				1,
				0.9999999403953552,
				1
			],
			"translation":[
				-1.2479722499847412e-07,
				2.2360904216766357,
				2.5647750589996576e-10
			]
		},
		{
			"children":[
				0,
				3,
				6
			],
			"name":"Bone.003",
			"rotation":[
				0.09119107574224472,
				-0.00035452807787805796,
				-0.005379884969443083,
				0.9958187937736511
			],
			"translation":[
				-0.008200270123779774,
				-1.8692823648452759,
				-0.6170556545257568
			]
		},
		{
			"name":"Bone.026",
			"rotation":[
				-0.1334206759929657,
				0.011901185847818851,
				-0.06658903509378433,
				0.98874831199646
			],
			"scale":[
				1,
				1.0000001192092896,
				0.9999998807907104
			],
			"translation":[
				7.598100637551397e-08,
				1.2559956312179565,
				8.381903171539307e-09
			]
		},
		{
			"children":[
				8
			],
			"name":"Bone.014",
			"rotation":[
				-0.04654271900653839,
				0.00044540694216266274,
				0.016821740195155144,
				0.9987745881080627
			],
			"scale":[
				0.9999999403953552,
				0.9999999403953552,
				1
			],
			"translation":[
				-2.6338784664403647e-07,
				2.0767295360565186,
				1.648440957069397e-07
			]
		},
		{
			"children":[
				9
			],
			"name":"Bone.012",
			"rotation":[
				-0.09164991974830627,
				0.5892661213874817,
				-0.4336003363132477,
				0.6755416989326477
			],
			"scale":[
				1,
				0.9999999403953552,
				0.9999999403953552
			],
			"translation":[
				1.3783574104309082e-07,
				0.5248268246650696,
				1.73225998878479e-07
			]
		},
		{
			"children":[
				10
			],
			"name":"Bone.007",
			"rotation":[
				-0.6299464106559753,
				0.38838252425193787,
				0.6381533741950989,
				0.2123364359140396
			],
			"scale":[
				0.9999998211860657,
				0.9999999403953552,
				1
			],
			"translation":[
				0.014646977186203003,
				-1.9048821926116943,
				-0.6895787119865417
			]
		},
		{
			"name":"Bone.027",
			"rotation":[
				-0.1334206908941269,
				-0.011901499703526497,
				0.06658899039030075,
				0.98874831199646
			],
			"scale":[
				0.9999999403953552,
				1.0000001192092896,
				0.9999998807907104
			],
			"translation":[
				-5.813490133732557e-09,
				1.2559958696365356,
				-1.3597309589385986e-07
			]
		},
		{
			"children":[
				12
			],
			"name":"Bone.015",
			"rotation":[
				-0.046542778611183167,
				-0.0004452332796063274,
				-0.01682170294225216,
				0.9987745881080627
			],
			"scale":[
				1,
				0.9999998211860657,
				0.9999998211860657
			],
			"translation":[
				-5.330457497620955e-08,
				2.0767288208007812,
				-4.0046870708465576e-08
			]
		},
		{
			"children":[
				13
			],
			"name":"Bone.013",
			"rotation":[
				-0.09639570862054825,
				-0.5874122381210327,
				0.43608173727989197,
				0.6748981475830078
			],
			"scale":[
				0.9999999403953552,
				0.9999999403953552,
				1
			],
			"translation":[
				1.043081283569336e-07,
				0.5318614840507507,
				1.471489667892456e-07
			]
		},
		{
			"children":[
				14
			],
			"name":"Bone.009",
			"rotation":[
				-0.6285433769226074,
				-0.391065776348114,
				-0.6363834142684937,
				0.2168339490890503
			],
			"scale":[
				0.9999998807907104,
				0.9999999403953552,
				1
			],
			"translation":[
				0.014646974392235279,
				-1.9048821926116943,
				-0.6895787119865417
			]
		},
		{
			"mesh":0,
			"name":"Cube.001",
			"skin":0
		},
		{
			"children":[
				16,
				7,
				11,
				15
			],
			"name":"Armature.001",
			"rotation":[
				-0.09749447554349899,
				0,
				0,
				0.9952360987663269
			],
			"scale":[
				0.10899999737739563,
				0.10927297919988632,
				0.10899998247623444
			]
		}
	],
	"materials":[
		{
			"doubleSided":true,
			"name":"Material.002",
			"pbrMetallicRoughness":{}
		}
	],
	"meshes":[
		{
			"name":"Cube.002",
			"primitives":[
				{
					"attributes":{
						"COLOR_0":0,
						"POSITION":1,
						"NORMAL":2,
						"JOINTS_0":3,
						"WEIGHTS_0":4
					},
					"indices":5,
					"material":0
				}
			]
		}
	],
	"skins":[
		{
			"inverseBindMatrices":6,
			"joints":[
				7,
				0,
				3,
				2,
				1,
				6,
				5,
				4,
				11,
				10,
				9,
				8,
				15,
				14,
				13,
				12
			],
			"name":"Armature.001"
		}
	],
	"accessors":[
		{
			"bufferView":0,
			"componentType":5123,
			"count":2468,
			"normalized":true,
			"type":"VEC4"
		},
		{
			"bufferView":1,
			"componentType":5126,
			"count":2468,
			"max":[
				0.3711179494857788,
				0.15969564020633698,
				0.04750047251582146
			],
			"min":[
				-0.3684905767440796,
				-0.6641162037849426,
				-0.07236389815807343
			],
			"type":"VEC3"
		},
		{
			"bufferView":2,
			"componentType":5126,
			"count":2468,
			"type":"VEC3"
		},
		{
			"bufferView":3,
			"componentType":5121,
			"count":2468,
			"type":"VEC4"
		},
		{
			"bufferView":4,
			"componentType":5126,
			"count":2468,
			"type":"VEC4"
		},
		{
			"bufferView":5,
			"componentType":5123,
			"count":3624,
			"type":"SCALAR"
		},
		{
			"bufferView":6,
			"componentType":5126,
			"count":16,
			"type":"MAT4"
		}
	],
	"bufferViews":[
		{
			"buffer":0,
			"byteLength":19744,
			"byteOffset":0,
			"target":34962
		},
		{
			"buffer":0,
			"byteLength":29616,
			"byteOffset":19744,
			"target":34962
		},
		{
			"buffer":0,
			"byteLength":29616,
			"byteOffset":49360,
			"target":34962
		},
		{
			"buffer":0,
			"byteLength":9872,
			"byteOffset":78976,
			"target":34962
		},
		{
			"buffer":0,
			"byteLength":39488,
			"byteOffset":88848,
			"target":34962
		},
		{
			"buffer":0,
			"byteLength":7248,
			"byteOffset":128336,
			"target":34963
		},
		{
			"buffer":0,
			"byteLength":1024,
			"byteOffset":135584
		}
	],
	"buffers":[
		{
			"byteLength":136608,
			"uri":"human2.bin"
		}
	]
}
