{
	"asset":{
		"generator":"Khronos glTF Blender I/O v3.5.30",
		"version":"2.0"
	},
	"scene":0,
	"scenes":[
		{
			"name":"Scene",
			"nodes":[
				19
			]
		}
	],
	"nodes":[
		{
			"name":"Bone.004",
			"rotation":[
				0.005264530889689922,
				-0.9981637597084045,
				-0.06033376604318619,
				0.0011632069945335388
			],
			"scale":[
				0.9999998211860657,
				1.0000003576278687,
				1
			],
			"translation":[
				-8.09086486697197e-09,
				2.236090898513794,
				-3.0031060305191204e-08
			]
		},
		{
			"name":"Bone.016",
			"rotation":[
				-0.14608393609523773,
				-0.031035754829645157,
				0.01816013641655445,
				0.9886184334754944
			],
			"scale":[
				0.9999997615814209,
				0.9999998807907104,
				1
			],
			"translation":[
				-0.010909387841820717,
				2.015608310699463,
				0.014583084732294083
			]
		},
		{
			"children":[
				1
			],
			"name":"Bone.010",
			"rotation":[
				-0.2695435583591461,
				0.556890070438385,
				-0.14212895929813385,
				0.7726700901985168
			],
			"scale":[
				1,
				1.0000003576278687,
				0.9999999403953552
			],
			"translation":[
				-0.00252537801861763,
				1.2581472396850586,
				-0.06273334473371506
			]
		},
		{
			"children":[
				2
			],
			"name":"Bone.006",
			"rotation":[
				-0.5932648777961731,
				0.49455690383911133,
				0.42867913842201233,
				0.46870505809783936
			],
			"scale":[
				0.9999998211860657,
				0.9999996423721313,
				0.9999998807907104
			],
			"translation":[
				-2.557935658842325e-07,
				2.236090660095215,
				-1.491280272603035e-07
			]
		},
		{
			"name":"Bone.017",
			"rotation":[
				-0.03017031028866768,
				0.06994765996932983,
				-0.025255220010876656,
				0.996774435043335
			],
			"scale":[
				1,
				0.9999997615814209,
				1.0000001192092896
			],
			"translation":[
				0.04788370430469513,
				1.8851964473724365,
				-0.01812112331390381
			]
		},
		{
			"children":[
				4
			],
			"name":"Bone.011",
			"rotation":[
				-0.2151213139295578,
				-0.6194353699684143,
				0.21148467063903809,
				0.7247737050056458
			],
			"scale":[
				0.9999998807907104,
				0.9999998807907104,
				0.9999999403953552
			],
			"translation":[
				0.006136341020464897,
				1.3275219202041626,
				-0.07882668077945709
			]
		},
		{
			"children":[
				5
			],
			"name":"Bone.008",
			"rotation":[
				-0.5661044120788574,
				-0.5481529235839844,
				-0.45950254797935486,
				0.4097702205181122
			],
			"scale":[
				0.9999999403953552,
				0.9999997615814209,
				0.9999998807907104
			],
			"translation":[
				-1.1961674317717552e-07,
				2.236090898513794,
				-2.984279490192421e-08
			]
		},
		{
			"children":[
				0,
				3,
				6
			],
			"name":"Bone.003",
			"rotation":[
				0.09119129180908203,
				-0.0003545304643921554,
				-0.005379887763410807,
				0.9958187937736511
			],
			"scale":[
				1,
				1,
				0.9999999403953552
			],
			"translation":[
				-0.027106089517474174,
				-2.168198585510254,
				-0.5136551260948181
			]
		},
		{
			"name":"Bone.026",
			"rotation":[
				-0.13342103362083435,
				0.011901198886334896,
				-0.06658916175365448,
				0.9887482523918152
			],
			"scale":[
				0.9999998211860657,
				0.9999998211860657,
				0.9999998211860657
			],
			"translation":[
				2.6489988158573397e-07,
				1.2559959888458252,
				9.802170097827911e-08
			]
		},
		{
			"children":[
				8
			],
			"name":"Bone.014",
			"rotation":[
				-0.046542804688215256,
				0.0004454675945453346,
				0.016821768134832382,
				0.998774528503418
			],
			"scale":[
				1,
				1.0000001192092896,
				1
			],
			"translation":[
				4.2256488086422905e-08,
				2.0767323970794678,
				9.359791874885559e-08
			]
		},
		{
			"children":[
				9
			],
			"name":"Bone.012",
			"rotation":[
				-0.0916498675942421,
				0.5892663598060608,
				-0.4336005449295044,
				0.675541341304779
			],
			"scale":[
				1.0000001192092896,
				1.0000001192092896,
				1.0000001192092896
			],
			"translation":[
				-4.023313522338867e-07,
				0.5248268842697144,
				8.707866072654724e-07
			]
		},
		{
			"children":[
				10
			],
			"name":"Bone.007",
			"rotation":[
				-0.6299462914466858,
				0.3883824050426483,
				0.638153612613678,
				0.21233628690242767
			],
			"scale":[
				1,
				1.000000238418579,
				1
			],
			"translation":[
				-0.004258842207491398,
				-2.2037978172302246,
				-0.5861784219741821
			]
		},
		{
			"name":"Bone.027",
			"rotation":[
				-0.1334208846092224,
				-0.011901448480784893,
				0.06658907234668732,
				0.9887482523918152
			],
			"scale":[
				1,
				1.0000001192092896,
				1.0000001192092896
			],
			"translation":[
				-2.5911867851391435e-07,
				1.2559940814971924,
				8.614733815193176e-08
			]
		},
		{
			"children":[
				12
			],
			"name":"Bone.015",
			"rotation":[
				-0.04654288664460182,
				-0.0004451970162335783,
				-0.016821781173348427,
				0.998774528503418
			],
			"scale":[
				1,
				1.0000001192092896,
				1
			],
			"translation":[
				-8.243432603194378e-08,
				2.076732635498047,
				-7.916241884231567e-08
			]
		},
		{
			"children":[
				13
			],
			"name":"Bone.013",
			"rotation":[
				-0.0963953509926796,
				-0.5874122381210327,
				0.43608197569847107,
				0.6748980283737183
			],
			"scale":[
				1,
				0.9999998807907104,
				0.9999998807907104
			],
			"translation":[
				4.991888999938965e-07,
				0.5318613052368164,
				5.867332220077515e-07
			]
		},
		{
			"children":[
				14
			],
			"name":"Bone.009",
			"rotation":[
				-0.6285435557365417,
				-0.3910658657550812,
				-0.6363832950592041,
				0.21683357656002045
			],
			"scale":[
				0.9999998807907104,
				0.9999999403953552,
				1
			],
			"translation":[
				-0.004258845932781696,
				-2.2037978172302246,
				-0.5861784219741821
			]
		},
		{
			"name":"neutral_bone",
			"rotation":[
				0.7071066498756409,
				-6.414526154685518e-08,
				-4.262487252049141e-08,
				0.70710688829422
			],
			"scale":[
				1,
				0.9999997019767761,
				0.9999999403953552
			],
			"translation":[
				-0.0032914653420448303,
				-1.1110272407531738,
				-0.11468468606472015
			]
		},
		{
			"name":"neutral_bone.001",
			"rotation":[
				0.7071066498756409,
				-6.414526154685518e-08,
				-4.262487252049141e-08,
				0.70710688829422
			],
			"scale":[
				1,
				0.9999997019767761,
				0.9999999403953552
			],
			"translation":[
				-0.0032914653420448303,
				-1.1110272407531738,
				-0.11468468606472015
			]
		},
		{
			"mesh":0,
			"name":"jacket_low_Jacket_M_0",
			"skin":0
		},
		{
			"children":[
				18,
				7,
				11,
				15,
				16,
				17
			],
			"name":"Armature.001",
			"rotation":[
				-0.09749449789524078,
				0,
				0,
				0.9952360987663269
			],
			"scale":[
				0.10899999737739563,
				0.10927297919988632,
				0.10899997502565384
			]
		}
	],
	"materials":[
		{
			"doubleSided":true,
			"name":"Jacket_M",
			"normalTexture":{
				"index":0
			},
			"occlusionTexture":{
				"index":1
			},
			"pbrMetallicRoughness":{
				"baseColorTexture":{
					"index":2
				},
				"metallicFactor":0,
				"metallicRoughnessTexture":{
					"index":1
				}
			}
		}
	],
	"meshes":[
		{
			"name":"jacket_low_Jacket_M_0",
			"primitives":[
				{
					"attributes":{
						"POSITION":0,
						"TEXCOORD_0":1,
						"NORMAL":2,
						"JOINTS_0":3,
						"WEIGHTS_0":4
					},
					"indices":5,
					"material":0
				}
			]
		}
	],
	"textures":[
		{
			"sampler":0,
			"source":0
		},
		{
			"sampler":0,
			"source":1
		},
		{
			"sampler":0,
			"source":2
		}
	],
	"images":[
		{
			"mimeType":"image/png",
			"name":"Jacket_M_normal",
			"uri":"Jacket_M_normal.png"
		},
		{
			"mimeType":"image/png",
			"name":"Jacket_M_metallicRoughness",
			"uri":"Jacket_M_metallicRoughness.png"
		},
		{
			"mimeType":"image/png",
			"name":"Jacket_M_baseColor",
			"uri":"Jacket_M_baseColor.png"
		}
	],
	"skins":[
		{
			"inverseBindMatrices":6,
			"joints":[
				7,
				0,
				3,
				2,
				1,
				6,
				5,
				4,
				11,
				10,
				9,
				8,
				15,
				14,
				13,
				12,
				16,
				17
			],
			"name":"Armature.001"
		}
	],
	"accessors":[
		{
			"bufferView":0,
			"componentType":5126,
			"count":2107,
			"max":[
				0.4608412981033325,
				0.10278758406639099,
				0.1286667436361313
			],
			"min":[
				-0.46435263752937317,
				-0.38057389855384827,
				-0.10032409429550171
			],
			"type":"VEC3"
		},
		{
			"bufferView":1,
			"componentType":5126,
			"count":2107,
			"type":"VEC2"
		},
		{
			"bufferView":2,
			"componentType":5126,
			"count":2107,
			"type":"VEC3"
		},
		{
			"bufferView":3,
			"componentType":5121,
			"count":2107,
			"type":"VEC4"
		},
		{
			"bufferView":4,
			"componentType":5126,
			"count":2107,
			"type":"VEC4"
		},
		{
			"bufferView":5,
			"componentType":5123,
			"count":11274,
			"type":"SCALAR"
		},
		{
			"bufferView":6,
			"componentType":5126,
			"count":18,
			"type":"MAT4"
		}
	],
	"bufferViews":[
		{
			"buffer":0,
			"byteLength":25284,
			"byteOffset":0,
			"target":34962
		},
		{
			"buffer":0,
			"byteLength":16856,
			"byteOffset":25284,
			"target":34962
		},
		{
			"buffer":0,
			"byteLength":25284,
			"byteOffset":42140,
			"target":34962
		},
		{
			"buffer":0,
			"byteLength":8428,
			"byteOffset":67424,
			"target":34962
		},
		{
			"buffer":0,
			"byteLength":33712,
			"byteOffset":75852,
			"target":34962
		},
		{
			"buffer":0,
			"byteLength":22548,
			"byteOffset":109564,
			"target":34963
		},
		{
			"buffer":0,
			"byteLength":1152,
			"byteOffset":132112
		}
	],
	"samplers":[
		{
			"magFilter":9729,
			"minFilter":9987
		}
	],
	"buffers":[
		{
			"byteLength":133264,
			"uri":"jack.bin"
		}
	]
}
